<svg id="Calque_1" data-name="Calque 1" xmlns="http://www.w3.org/2000/svg" viewBox="0 0 279 51"><defs><style>.cls-1{fill:#fff;}</style></defs><path class="cls-1" d="M35.62,47.67a2.38,2.38,0,0,1-.32.89,1.78,1.78,0,0,1-.71.39,29.54,29.54,0,0,1-13,1.66C10.5,49.4,3.45,42.61,1.21,33.83A28.47,28.47,0,0,1,6.08,9.37,25.91,25.91,0,0,1,22,.59,33.12,33.12,0,0,1,37.6,2.07a21.22,21.22,0,0,1,4.49,2.11c1,.64,1.09.9,1.09.9s.06.12-.2,1.15l-1.79,9.42a.92.92,0,0,1-.32.57s-.12.07-1-.51a21,21,0,0,0-12.5-3.58c-5.13.31-11.08,3-12.88,9.8-1.6,6,.07,11.07,3.65,14.08,2.44,2.11,6.22,3.2,10.19,3a23.49,23.49,0,0,0,7.56-1.92l.39-.13c.9-.45,1.09-.38,1.09-.38s.19.19.07.77Zm32.8-32s-.06,0-.12.13L61.89,30.38a.34.34,0,0,0-.07.32s.07.06.39.06l9.42.06a.26.26,0,0,0,.13-.06s.06-.06,0-.26L68.49,15.84C68.49,15.71,68.42,15.71,68.42,15.71Zm106.36-.19s-.06,0-.12.26l-6.4,14.47c-.14.45-.08.51-.08.51a.83.83,0,0,0,.33.13l9.48-.07h.13s.06-.06,0-.25l-3.21-14.86C174.86,15.52,174.78,15.52,174.78,15.52ZM87.91,49.26l-11.41.07a.92.92,0,0,1-.45-.12s-.07-.07-.13-.51l-1.8-7.37a.3.3,0,0,0-.12-.26H57.72a.68.68,0,0,0-.51.26,1.71,1.71,0,0,0-.45.64l-3.2,6.85a2,2,0,0,1-.19.32.9.9,0,0,1-.39.12H39.72c-.38.07-.45-.12-.45-.12a.56.56,0,0,1,.07-.44l23-46.25a.62.62,0,0,1,.33-.31H77.78a.74.74,0,0,1,.45.19.75.75,0,0,1,.13.25L88.22,49a.3.3,0,0,1-.31.31Zm51.25.14H127.05a1.31,1.31,0,0,1-.12-.14L110.65,20.38c-.13-.12-.19-.12-.19-.12s-.14,0-.14.18l-4,28.38a.85.85,0,0,1-.13.39,1,1,0,0,1-.32,0H94.18a.51.51,0,0,1-.32-.12.69.69,0,0,1-.2-.51l6.42-45.92c.06-.26.18-.32.18-.32a.71.71,0,0,1,.4-.19h13a.46.46,0,0,1,.32.13.41.41,0,0,1,.19.25l14.67,25.74c.26.52.45.45.45.45s.2,0,.33-.57l3.71-25.62a.27.27,0,0,1,.13-.25.27.27,0,0,1,.26-.13L146,2.33c.25,0,.32.06.32.06a.31.31,0,0,1,.05.19l-6.6,46.3a1.23,1.23,0,0,1-.19.45S139.48,49.4,139.16,49.4Zm54.92.05H182.34a.35.35,0,0,1-.44-.12,1.2,1.2,0,0,1-.13-.45l-1.54-7.23a2.09,2.09,0,0,0-.26-.58,1.48,1.48,0,0,0-.7-.19H164a.76.76,0,0,0-.51.19,1.73,1.73,0,0,0-.38.65l-3.47,7.35a.47.47,0,0,1-.18.26,2.14,2.14,0,0,1-.4.07h-13.2a.44.44,0,0,1-.44-.14s-.07-.12.13-.38L168.83,2.45a1,1,0,0,0,.26-.25,1.33,1.33,0,0,1,.51-.06H184a.79.79,0,0,1,.51.19.66.66,0,0,1,.12.25l9.68,46.63a.28.28,0,0,1-.07.19S194.26,49.45,194.08,49.45Zm33.64-.69a1.78,1.78,0,0,1-.14.5s-.06.14-.38.14H200.8c-.77,0-1-.19-1-.19a1.66,1.66,0,0,1-.07-.84L206.31,2.9a1.83,1.83,0,0,1,.19-.76h12.69a1.19,1.19,0,0,1,.45.06.93.93,0,0,1,0,.45l-4.93,35.54c-.07.38.13.44.13.44a1.55,1.55,0,0,0,.63.07h13.07a.57.57,0,0,1,.39.13s.06.06.06.38Zm50.81-18a.29.29,0,0,1-.26.13h-16.4a.54.54,0,0,0-.39.13s-.19.06-.19.38V48.88c0,.26-.13.33-.13.33a.3.3,0,0,1-.26.12h-13a.47.47,0,0,1-.31-.12s-.07-.07-.07-.39V31.34a.42.42,0,0,0-.19-.32.27.27,0,0,0-.25-.13h-16.8c-.31,0-.38-.07-.38-.07s-.13-.12-.13-.51V17.5a.77.77,0,0,1,.13-.31.29.29,0,0,1,.2-.07h17.17c.13,0,.13-.06.13-.06a.25.25,0,0,0,.12-.2V1.56a.68.68,0,0,1,.07-.32,1.16,1.16,0,0,1,.51-.07h12.75c.25,0,.32.07.32.07a.53.53,0,0,1,.13.38V17H278a1.5,1.5,0,0,1,.58.07s.19.06.19.44V30.44C278.72,30.57,278.53,30.76,278.53,30.76Z"/></svg>